<svg xmlns="http://www.w3.org/2000/svg" viewBox="0 0 512 512" fill="none">
  <defs>
    <linearGradient id="bg" x1="56" y1="40" x2="456" y2="472" gradientUnits="userSpaceOnUse">
      <stop stop-color="#081222" />
      <stop offset="0.55" stop-color="#0C1830" />
      <stop offset="1" stop-color="#112943" />
    </linearGradient>
    <linearGradient id="accent" x1="156" y1="126" x2="392" y2="380" gradientUnits="userSpaceOnUse">
      <stop stop-color="#4DF3C2" />
      <stop offset="1" stop-color="#39A7FF" />
    </linearGradient>
    <radialGradient id="glow" cx="0" cy="0" r="1" gradientUnits="userSpaceOnUse" gradientTransform="translate(248 214) rotate(90) scale(150)">
      <stop stop-color="#214E85" stop-opacity="0.4" />
      <stop offset="1" stop-color="#214E85" stop-opacity="0" />
    </radialGradient>
  </defs>
  <rect x="24" y="24" width="464" height="464" rx="112" fill="url(#bg)" />
  <rect x="24" y="24" width="464" height="464" rx="112" stroke="rgba(146,188,255,0.18)" stroke-width="2" />
  <circle cx="248" cy="214" r="150" fill="url(#glow)" />
  <circle cx="234" cy="222" r="108" fill="rgba(7, 17, 31, 0.72)" stroke="url(#accent)" stroke-width="26" />
  <path d="M312 300L388 376" stroke="url(#accent)" stroke-width="30" stroke-linecap="round" />
  <path d="M178 186H212V286H178V186Z" fill="#E8FBFF" fill-opacity="0.95" />
  <path d="M226 218H260V286H226V218Z" fill="#88E7F8" fill-opacity="0.95" />
  <path d="M274 158H308V286H274V158Z" fill="#4DF3C2" fill-opacity="0.95" />
  <path d="M150 182H186" stroke="#AEEBFF" stroke-width="12" stroke-linecap="round" />
  <path d="M300 134V104" stroke="#7AD0FF" stroke-width="12" stroke-linecap="round" />
  <path d="M322 244H356" stroke="#7AD0FF" stroke-width="12" stroke-linecap="round" />
  <path d="M212 142L238 168" stroke="#4DF3C2" stroke-width="10" stroke-linecap="round" />
  <path d="M292 284L318 310" stroke="#4DF3C2" stroke-width="10" stroke-linecap="round" />
  <circle cx="146" cy="182" r="14" fill="#4DF3C2" />
  <circle cx="300" cy="94" r="14" fill="#39A7FF" />
  <circle cx="370" cy="244" r="14" fill="#39A7FF" />
  <circle cx="246" cy="174" r="10" fill="#E8FBFF" />
</svg>
